# Blender 3.6.2
# www.blender.org
o å¹³é¢
v -9.133433 0.000000 4.000000
v -1.133433 0.000000 4.000000
v -9.133433 0.000000 -4.000000
v -1.133433 0.000000 -4.000000
v -9.133433 0.000000 4.000000
v -1.133433 0.000000 4.000000
v -9.133433 0.000000 -4.000000
v -9.133433 4.000000 4.000000
v -1.133433 4.000000 4.000000
v -9.133433 4.000000 -4.000000
v -1.133433 2.967084 4.000000
v -1.133433 1.526008 4.000000
v -9.133433 1.526008 4.000000
v -9.133433 2.967084 4.000000
v -9.133433 1.333333 -4.000000
v -9.133433 2.666667 -4.000000
v -7.533433 0.000000 4.000000
v -5.933434 0.000000 4.000000
v -4.333433 0.000000 4.000000
v -2.733433 0.000000 4.000000
v -2.733433 0.000000 -4.000000
v -4.333433 0.000000 -4.000000
v -5.933434 0.000000 -4.000000
v -7.533433 0.000000 -4.000000
v -7.293756 0.000000 4.000000
v -5.933434 0.000000 4.000000
v -4.176542 0.000000 4.000000
v -2.733433 0.000000 4.000000
v -7.293756 4.000000 4.000000
v -5.933434 4.000000 4.000000
v -4.176542 4.000000 4.000000
v -2.733433 4.000000 4.000000
v -7.293756 1.526008 4.000000
v -5.933434 1.526008 4.000000
v -4.176542 1.526008 4.000000
v -2.733433 1.526008 4.000000
v -7.293756 2.967084 4.000000
v -5.933434 2.967084 4.000000
v -4.176542 2.967084 4.000000
v -2.733433 2.967084 4.000000
vn -0.0000 1.0000 -0.0000
vn -0.0000 -0.0000 -1.0000
vn 1.0000 -0.0000 -0.0000
vn -0.0000 -1.0000 -0.0000
vt 1.000000 0.000000
vt 0.800000 1.000000
vt 0.800000 0.000000
vt 0.200000 0.000000
vt 0.000000 0.000000
vt 0.000000 1.000000
vt 0.400000 0.000000
vt 0.600000 0.000000
vt 0.200000 1.000000
vt 0.400000 1.000000
vt 0.600000 1.000000
vt 1.000000 1.000000
s 0
f 2/1/1 21/2/1 20/3/1
f 17/4/1 5/5/1 25/4/1
f 1/5/1 7/6/1 5/5/1
f 14/5/2 29/4/2 37/4/2
f 14/5/3 10/6/3 8/5/3
f 5/5/3 15/6/3 13/5/3
f 13/5/3 16/6/3 14/5/3
f 5/5/2 33/4/2 25/4/2
f 13/5/2 37/4/2 33/4/2
f 36/3/2 11/1/2 12/1/2
f 34/7/2 39/8/2 35/8/2
f 28/3/2 12/1/2 6/1/2
f 27/8/2 36/3/2 28/3/2
f 26/7/2 35/8/2 27/8/2
f 25/4/2 34/7/2 26/7/2
f 40/3/2 9/1/2 11/1/2
f 39/8/2 32/3/2 40/3/2
f 38/7/2 31/8/2 39/8/2
f 37/4/2 30/7/2 38/7/2
f 2/1/1 28/3/1 6/1/1
f 20/3/1 27/8/1 28/3/1
f 19/8/4 26/7/4 27/8/4
f 18/7/1 25/4/1 26/7/1
f 17/4/1 3/6/1 1/5/1
f 18/7/1 24/9/1 17/4/1
f 19/8/1 23/10/1 18/7/1
f 20/3/1 22/11/1 19/8/1
f 2/1/1 4/12/1 21/2/1
f 17/4/1 1/5/1 5/5/1
f 1/5/1 3/6/1 7/6/1
f 14/5/2 8/5/2 29/4/2
f 14/5/3 16/6/3 10/6/3
f 5/5/3 7/6/3 15/6/3
f 13/5/3 15/6/3 16/6/3
f 5/5/2 13/5/2 33/4/2
f 13/5/2 14/5/2 37/4/2
f 36/3/2 40/3/2 11/1/2
f 34/7/2 38/7/2 39/8/2
f 28/3/2 36/3/2 12/1/2
f 27/8/2 35/8/2 36/3/2
f 26/7/2 34/7/2 35/8/2
f 25/4/2 33/4/2 34/7/2
f 40/3/2 32/3/2 9/1/2
f 39/8/2 31/8/2 32/3/2
f 38/7/2 30/7/2 31/8/2
f 37/4/2 29/4/2 30/7/2
f 2/1/1 20/3/1 28/3/1
f 20/3/1 19/8/1 27/8/1
f 19/8/1 18/7/1 26/7/1
f 18/7/1 17/4/1 25/4/1
f 17/4/1 24/9/1 3/6/1
f 18/7/1 23/10/1 24/9/1
f 19/8/1 22/11/1 23/10/1
f 20/3/1 21/2/1 22/11/1
