# Blender 3.6.2
# www.blender.org
o 立方体
v -6.543800 0.000000 -0.354874
v -6.543800 1.771956 -0.354874
v -6.543800 1.425962 -0.354874
v -6.543800 1.771956 -0.354874
v -6.543800 1.425962 -0.354874
v -6.305387 1.771956 -0.354874
v -6.305387 1.425962 -0.354874
v -6.543800 1.771956 -0.354874
v -6.543800 1.425962 -0.354874
v -7.037634 0.000000 -0.354874
v -7.037634 1.771956 -0.354874
v -7.037634 1.425962 -0.354874
v -7.037634 1.771956 -0.354874
v -7.037634 1.425962 -0.354874
v -7.531468 0.000000 -0.354874
v -7.531468 1.771956 -0.354874
v -7.531468 1.425962 -0.354874
v -7.531468 1.771956 -0.354874
v -7.531468 1.425962 -0.354874
v -7.769882 1.771956 -0.354874
v -7.769882 1.425962 -0.354874
v -7.531468 1.771956 -0.354874
v -7.531468 1.425962 -0.354874
v -6.543800 1.771956 -0.544116
v -6.543800 1.425962 -0.544116
v -6.305387 1.771956 -0.544116
v -6.305387 1.425962 -0.544116
v -7.037634 1.771956 -0.544116
v -6.543800 1.771956 -0.544116
v -6.543800 1.425962 -0.544116
v -7.037634 1.425962 -0.544116
v -7.531468 1.771956 -0.544116
v -7.531468 1.425962 -0.544116
v -7.769882 1.771956 -0.544116
v -7.769882 1.425962 -0.544116
v -7.531468 1.771956 -0.544116
v -7.531468 1.425962 -0.544116
v -6.543800 0.000000 0.910480
v -6.543800 1.771956 0.910480
v -6.543800 1.425962 0.910480
v -6.543800 1.771956 0.910480
v -6.543800 1.425962 0.910480
v -6.305387 1.771956 0.910480
v -6.305387 1.425962 0.910480
v -7.037634 1.771956 0.910480
v -7.037634 0.000000 0.910480
v -7.531468 0.000000 0.910480
v -7.531468 1.771956 0.910480
v -7.531468 1.425962 0.910480
v -7.531468 1.771956 0.910480
v -7.531468 1.425962 0.910480
v -7.769882 1.771956 0.910480
v -7.769882 1.425962 0.910480
v -6.543800 0.000000 2.175835
v -6.543800 1.771956 2.175835
v -6.543800 1.425962 2.175835
v -6.543800 1.771956 2.175835
v -6.543800 1.425962 2.175835
v -6.305387 1.771956 2.175835
v -6.305387 1.425962 2.175835
v -6.543800 1.771956 2.175835
v -6.543800 1.425962 2.175835
v -7.037634 0.000000 2.175835
v -7.037634 1.771956 2.175835
v -7.037634 1.425962 2.175835
v -7.037634 1.771956 2.175835
v -7.037634 1.425962 2.175835
v -7.531468 0.000000 2.175835
v -7.531468 1.771956 2.175835
v -7.531468 1.425962 2.175835
v -7.531468 1.771956 2.175835
v -7.531468 1.425962 2.175835
v -7.769882 1.771956 2.175835
v -7.769882 1.425962 2.175835
v -7.531468 1.771956 2.175835
v -7.531468 1.425962 2.175835
v -6.543800 1.771956 2.365077
v -6.543800 1.425962 2.365077
v -6.305387 1.771956 2.365077
v -6.305387 1.425962 2.365077
v -7.037634 1.771956 2.365077
v -6.543800 1.771956 2.365077
v -6.543800 1.425962 2.365077
v -7.037634 1.425962 2.365077
v -7.531468 1.771956 2.365077
v -7.531468 1.425962 2.365077
v -7.769882 1.771956 2.365077
v -7.769882 1.425962 2.365077
v -7.531468 1.771956 2.365077
v -7.531468 1.425962 2.365077
vn -0.0000 1.0000 -0.0000
vn -0.0000 -0.0000 -1.0000
vn -0.0000 -1.0000 -0.0000
vn 1.0000 -0.0000 -0.0000
vn -1.0000 -0.0000 -0.0000
vn -0.0000 -0.0000 1.0000
vt 0.544605 0.500000
vt 0.625000 0.500000
vt 0.544605 0.375000
vt 0.375000 0.500000
vt 0.375000 0.375000
vt 0.544605 0.606250
vt 0.750000 0.500000
vt 0.625000 0.375000
vt 0.625000 0.606250
vt 0.375000 0.606250
vt 0.250000 0.606250
vt 0.250000 0.500000
vt 0.750000 0.606250
s 0
f 3/1/1 4/2/1 5/1/1
f 12/3/2 1/4/2 10/5/2
f 40/6/1 5/1/1 42/6/1
f 5/1/3 44/6/3 42/6/3
f 19/1/4 32/2/4 18/2/4
f 21/1/3 33/1/3 19/1/3
f 11/7/1 8/2/1 13/7/1
f 2/2/1 9/1/1 8/2/1
f 3/1/1 14/3/1 9/1/1
f 17/1/1 18/2/1 16/2/1
f 15/4/2 12/3/2 10/5/2
f 49/6/1 19/1/1 17/1/1
f 53/6/3 19/1/3 51/6/3
f 18/2/1 34/2/1 20/2/1
f 14/3/3 30/1/3 9/1/3
f 11/7/1 22/2/1 16/2/1
f 16/2/1 23/1/1 17/1/1
f 17/1/1 14/3/1 12/3/1
f 24/2/2 27/1/2 25/1/2
f 28/8/2 30/1/2 31/3/2
f 35/1/2 32/2/2 33/1/2
f 37/1/2 28/8/2 31/3/2
f 13/7/1 36/2/1 22/2/1
f 6/2/1 24/2/1 4/2/1
f 20/2/5 35/1/5 21/1/5
f 22/2/5 37/1/5 23/1/5
f 5/1/3 27/1/3 7/1/3
f 23/1/3 31/3/3 14/3/3
f 4/2/5 25/1/5 5/1/5
f 8/2/1 28/7/1 13/7/1
f 7/1/4 26/2/4 6/2/4
f 9/1/4 29/2/4 8/2/4
f 53/6/5 20/2/5 21/1/5
f 20/2/1 50/9/1 18/2/1
f 16/2/1 50/9/1 48/9/1
f 47/10/5 17/1/5 15/4/5
f 46/11/3 15/4/3 10/12/3
f 48/9/1 11/7/1 16/2/1
f 6/2/4 44/6/4 7/1/4
f 41/9/1 6/2/1 4/2/1
f 2/2/1 41/9/1 4/2/1
f 11/7/1 39/9/1 2/2/1
f 1/4/3 46/11/3 10/12/3
f 3/1/4 38/10/4 1/4/4
f 56/1/1 57/2/1 55/2/1
f 54/4/6 65/3/6 63/5/6
f 40/6/1 58/1/1 56/1/1
f 44/6/3 58/1/3 42/6/3
f 85/2/4 72/1/4 71/2/4
f 86/1/3 74/1/3 72/1/3
f 64/7/1 61/2/1 55/2/1
f 55/2/1 62/1/1 56/1/1
f 56/1/1 67/3/1 65/3/1
f 70/1/1 71/2/1 72/1/1
f 65/3/6 68/4/6 63/5/6
f 49/6/1 72/1/1 51/6/1
f 72/1/3 53/6/3 51/6/3
f 87/2/1 71/2/1 73/2/1
f 83/1/3 67/3/3 62/1/3
f 64/7/1 75/2/1 66/7/1
f 69/2/1 76/1/1 75/2/1
f 70/1/1 67/3/1 76/1/1
f 80/1/6 77/2/6 78/1/6
f 83/1/6 81/8/6 84/3/6
f 85/2/6 88/1/6 86/1/6
f 81/8/6 90/1/6 84/3/6
f 89/2/1 66/7/1 75/2/1
f 77/2/1 59/2/1 57/2/1
f 88/1/5 73/2/5 74/1/5
f 90/1/5 75/2/5 76/1/5
f 80/1/3 58/1/3 60/1/3
f 84/3/3 76/1/3 67/3/3
f 78/1/5 57/2/5 58/1/5
f 81/7/1 61/2/1 66/7/1
f 79/2/4 60/1/4 59/2/4
f 82/2/4 62/1/4 61/2/4
f 73/2/5 53/6/5 74/1/5
f 50/9/1 73/2/1 71/2/1
f 69/2/1 50/9/1 71/2/1
f 70/1/5 47/10/5 68/4/5
f 68/4/3 46/11/3 63/12/3
f 64/7/1 48/9/1 69/2/1
f 44/6/4 59/2/4 60/1/4
f 59/2/1 41/9/1 57/2/1
f 55/2/1 41/9/1 39/9/1
f 39/9/1 64/7/1 55/2/1
f 46/11/3 54/4/3 63/12/3
f 38/10/4 56/1/4 54/4/4
f 3/1/1 2/2/1 4/2/1
f 12/3/2 3/1/2 1/4/2
f 40/6/1 3/1/1 5/1/1
f 5/1/3 7/1/3 44/6/3
f 19/1/4 33/1/4 32/2/4
f 21/1/3 35/1/3 33/1/3
f 11/7/1 2/2/1 8/2/1
f 2/2/1 3/1/1 9/1/1
f 3/1/1 12/3/1 14/3/1
f 17/1/1 19/1/1 18/2/1
f 15/4/2 17/1/2 12/3/2
f 49/6/1 51/6/1 19/1/1
f 53/6/3 21/1/3 19/1/3
f 18/2/1 32/2/1 34/2/1
f 14/3/3 31/3/3 30/1/3
f 11/7/1 13/7/1 22/2/1
f 16/2/1 22/2/1 23/1/1
f 17/1/1 23/1/1 14/3/1
f 24/2/2 26/2/2 27/1/2
f 28/8/2 29/2/2 30/1/2
f 35/1/2 34/2/2 32/2/2
f 37/1/2 36/2/2 28/8/2
f 13/7/1 28/7/1 36/2/1
f 6/2/1 26/2/1 24/2/1
f 20/2/5 34/2/5 35/1/5
f 22/2/5 36/2/5 37/1/5
f 5/1/3 25/1/3 27/1/3
f 23/1/3 37/1/3 31/3/3
f 4/2/5 24/2/5 25/1/5
f 8/2/1 29/2/1 28/7/1
f 7/1/4 27/1/4 26/2/4
f 9/1/4 30/1/4 29/2/4
f 53/6/5 52/9/5 20/2/5
f 20/2/1 52/9/1 50/9/1
f 16/2/1 18/2/1 50/9/1
f 47/10/5 49/6/5 17/1/5
f 46/11/3 47/10/3 15/4/3
f 48/9/1 45/13/1 11/7/1
f 6/2/4 43/9/4 44/6/4
f 41/9/1 43/9/1 6/2/1
f 2/2/1 39/9/1 41/9/1
f 11/7/1 45/13/1 39/9/1
f 1/4/3 38/10/3 46/11/3
f 3/1/4 40/6/4 38/10/4
f 56/1/1 58/1/1 57/2/1
f 54/4/6 56/1/6 65/3/6
f 40/6/1 42/6/1 58/1/1
f 44/6/3 60/1/3 58/1/3
f 85/2/4 86/1/4 72/1/4
f 86/1/3 88/1/3 74/1/3
f 64/7/1 66/7/1 61/2/1
f 55/2/1 61/2/1 62/1/1
f 56/1/1 62/1/1 67/3/1
f 70/1/1 69/2/1 71/2/1
f 65/3/6 70/1/6 68/4/6
f 49/6/1 70/1/1 72/1/1
f 72/1/3 74/1/3 53/6/3
f 87/2/1 85/2/1 71/2/1
f 83/1/3 84/3/3 67/3/3
f 64/7/1 69/2/1 75/2/1
f 69/2/1 70/1/1 76/1/1
f 70/1/1 65/3/1 67/3/1
f 80/1/6 79/2/6 77/2/6
f 83/1/6 82/2/6 81/8/6
f 85/2/6 87/2/6 88/1/6
f 81/8/6 89/2/6 90/1/6
f 89/2/1 81/7/1 66/7/1
f 77/2/1 79/2/1 59/2/1
f 88/1/5 87/2/5 73/2/5
f 90/1/5 89/2/5 75/2/5
f 80/1/3 78/1/3 58/1/3
f 84/3/3 90/1/3 76/1/3
f 78/1/5 77/2/5 57/2/5
f 81/7/1 82/2/1 61/2/1
f 79/2/4 80/1/4 60/1/4
f 82/2/4 83/1/4 62/1/4
f 73/2/5 52/9/5 53/6/5
f 50/9/1 52/9/1 73/2/1
f 69/2/1 48/9/1 50/9/1
f 70/1/5 49/6/5 47/10/5
f 68/4/3 47/10/3 46/11/3
f 64/7/1 45/13/1 48/9/1
f 44/6/4 43/9/4 59/2/4
f 59/2/1 43/9/1 41/9/1
f 55/2/1 57/2/1 41/9/1
f 39/9/1 45/13/1 64/7/1
f 46/11/3 38/10/3 54/4/3
f 38/10/4 40/6/4 56/1/4
